<?xml version="1.0" encoding="UTF-8" standalone="no"?>
<svg
   xmlns:dc="http://purl.org/dc/elements/1.1/"
   xmlns:cc="http://creativecommons.org/ns#"
   xmlns:rdf="http://www.w3.org/1999/02/22-rdf-syntax-ns#"
   xmlns:svg="http://www.w3.org/2000/svg"
   xmlns="http://www.w3.org/2000/svg"
   id="svg8"
   version="1.1"
   viewBox="0 0 703.85352 135.46092"
   height="135.46091mm"
   width="703.85352mm">
  <defs
     id="defs2" />
  <metadata
     id="metadata5">
    <rdf:RDF>
      <cc:Work
         rdf:about="">
        <dc:format>image/svg+xml</dc:format>
        <dc:type
           rdf:resource="http://purl.org/dc/dcmitype/StillImage" />
        <dc:title></dc:title>
      </cc:Work>
    </rdf:RDF>
  </metadata>
  <g
     transform="translate(1.549325e-4,0.08940023)"
     id="layer1">
    <g
       id="lifebelt">
      <path
         style="opacity:1;fill:#50bef0;fill-opacity:1;fill-rule:nonzero;stroke:none;stroke-width:0.035;stroke-linecap:round;stroke-linejoin:round;stroke-miterlimit:4;stroke-dasharray:none;stroke-opacity:1;paint-order:normal"
         d="M 67.657884,-0.08940023 A 67.657738,67.657738 0 0 0 3.6666666e-8,67.568484 67.657738,67.657738 0 0 0 67.657884,135.22637 67.657738,67.657738 0 0 0 135.31525,67.568484 67.657738,67.657738 0 0 0 67.657884,-0.08940023 Z m 0,18.42006423 A 46.52192,49.237582 0 0 1 114.17959,67.568484 46.52192,49.237582 0 0 1 67.657884,116.80579 46.52192,49.237582 0 0 1 21.13566,67.568484 46.52192,49.237582 0 0 1 67.657884,18.330664 Z"
         id="path826" />
      <path
         style="fill:#643c78;fill-opacity:1;fill-rule:nonzero;stroke:none;stroke-width:0.035;stroke-linecap:round;stroke-linejoin:round;stroke-miterlimit:4;stroke-dasharray:none;stroke-opacity:1;paint-order:normal"
         d="m 101.43153,101.34213 a 46.52192,49.237582 0 0 1 -33.774162,15.46418 46.52192,49.237582 0 0 1 -12.680878,-1.911 l -4.829681,18.02526 a 67.657738,67.657738 0 0 0 65.352081,-17.51108 z"
         id="path826-3-6" />
      <path
         style="fill:#643c78;fill-opacity:1;fill-rule:nonzero;stroke:none;stroke-width:0.035;stroke-linecap:round;stroke-linejoin:round;stroke-miterlimit:4;stroke-dasharray:none;stroke-opacity:1;paint-order:normal"
         d="M 85.168961,2.2158854 80.338765,20.241658 a 46.52192,49.237582 0 0 1 32.377865,35.253145 l 20.29334,-5.437394 A 67.657738,67.657738 0 0 0 85.168961,2.2158854 Z"
         id="path826-3-6-3" />
      <path
         style="fill:#643c78;fill-opacity:1;fill-rule:nonzero;stroke:none;stroke-width:0.035;stroke-linecap:round;stroke-linejoin:round;stroke-miterlimit:4;stroke-dasharray:none;stroke-opacity:1;paint-order:normal"
         d="M 19.816361,19.726961 A 67.657738,67.657738 0 0 0 2.3052856,85.079561 L 22.59862,79.642167 A 46.52192,49.237582 0 0 1 21.13566,67.568484 46.52192,49.237582 0 0 1 33.883719,33.794319 Z"
         id="path826-3-6-3-5" />
    </g>
    <flowRoot
       transform="matrix(0.26458333,0,0,0.26458333,-1.5485942e-4,-0.08940023)"
       style="font-style:normal;font-variant:normal;font-weight:bold;font-stretch:normal;font-size:40px;line-height:0;font-family:Radikal;-inkscape-font-specification:'Radikal Bold';letter-spacing:0px;word-spacing:0px;fill:#000000;fill-opacity:1;stroke:none"
       id="flowRoot4802"
       xml:space="preserve"><flowRegion
         id="flowRegion4804"><rect
           y="0.00040318095"
           x="545.71429"
           height="511.42926"
           width="240"
           id="rect4806" /></flowRegion><flowPara
         id="flowPara4808" /></flowRoot>    <g
       id="flowRoot4810"
       style="font-style:normal;font-variant:normal;font-weight:bold;font-stretch:normal;font-size:400px;line-height:0;font-family:Radikal;-inkscape-font-specification:'Radikal Bold';letter-spacing:0px;word-spacing:0px;fill:#282832;fill-opacity:1;stroke:none"
       transform="matrix(0.26458333,0,0,0.26458333,16.026036,88.35158)"
       aria-label="

lifebelt">
      <path
         id="path917"
         style="font-style:normal;font-variant:normal;font-weight:900;font-stretch:normal;font-family:Radikal;-inkscape-font-specification:'Radikal Heavy';fill:#282832;fill-opacity:1"
         d="m 648.89227,-315.08687 h -76.8 v 486.4 h 76.8 z" />
      <path
         id="path919"
         style="font-style:normal;font-variant:normal;font-weight:500;font-stretch:normal;font-size:640px;font-family:Radikal;-inkscape-font-specification:'Radikal Medium';fill:#282832;fill-opacity:1"
         d="m 772.96227,-302.28687 c -27.52,0 -47.36,20.48 -47.36,48 0,27.52 19.84,47.36 47.36,47.36 27.52,0 48,-19.84 48,-47.36 0,-27.52 -20.48,-48 -48,-48 z m 39.04,151.04 h -77.44 v 322.56 h 77.44 z" />
      <path
         id="path921"
         style="font-style:normal;font-variant:normal;font-weight:500;font-stretch:normal;font-size:640px;font-family:Radikal;-inkscape-font-specification:'Radikal Medium';fill:#282832;fill-opacity:1"
         d="m 1041.7023,-315.08687 c -73.60003,0 -119.04003,52.48 -119.04003,125.44 v 38.4 h -56.96 v 65.280001 h 56.96 V 171.31313 h 77.44003 V -85.966869 h 78.72 v -65.280001 h -78.72 v -42.24 c 0,-32.64 16.64,-53.76 46.08,-53.76 17.28,0 30.72,6.4 39.68,15.36 l 28.8,-62.08 c -17.92,-13.44 -42.24,-21.12 -72.96,-21.12 z" />
      <path
         id="path923"
         style="font-style:normal;font-variant:normal;font-weight:500;font-stretch:normal;font-size:640px;font-family:Radikal;-inkscape-font-specification:'Radikal Medium';fill:#282832;fill-opacity:1"
         d="m 1270.2723,-157.64687 c -93.44,0 -158.08,71.040001 -158.08,168.320001 0,96.639999 65.28,167.039999 165.12,167.039999 59.52,0 103.04,-22.4 134.4,-61.44 l -51.2,-40.319999 c -15.36,20.48 -43.52,36.479999 -81.92,36.479999 -53.76,0 -85.12,-28.159999 -88.32,-78.719999 h 227.84 V 6.8331313 c 0,-90.2400003 -49.28,-164.4800013 -147.84,-164.4800013 z m -1.28,61.440001 c 45.44,0 71.04,30.72 72.96,74.88 h -151.68 c 2.56,-44.8 33.28,-74.88 78.72,-74.88 z" />
      <path
         id="path925"
         style="font-style:normal;font-variant:normal;font-weight:500;font-stretch:normal;font-size:640px;font-family:Radikal;-inkscape-font-specification:'Radikal Medium';fill:#282832;fill-opacity:1"
         d="m 1558.8923,-315.08687 h -76.8 v 486.4 h 69.12 l 3.84,-37.76 c 17.92,24.32 50.56,44.16 99.2,44.16 87.68,0 147.2,-71.04 147.2,-167.679999 0,-97.28 -59.52,-167.680001 -147.2,-167.680001 -46.72,0 -77.44,17.92 -95.36,38.4 z m 78.72,225.280001 c 49.92,0 85.76,39.04 85.76,99.84 0,60.8 -35.84,99.839999 -85.76,99.839999 -38.4,0 -61.44,-20.479999 -78.72,-47.999999 v -103.68 c 17.28,-27.52 40.32,-48 78.72,-48 z" />
      <path
         id="path927"
         style="font-style:normal;font-variant:normal;font-weight:500;font-stretch:normal;font-size:640px;font-family:Radikal;-inkscape-font-specification:'Radikal Medium';fill:#282832;fill-opacity:1"
         d="m 2007.7723,-157.64687 c -93.44,0 -158.08,71.040001 -158.08,168.320001 0,96.639999 65.28,167.039999 165.12,167.039999 59.52,0 103.04,-22.4 134.4,-61.44 l -51.2,-40.319999 c -15.36,20.48 -43.52,36.479999 -81.92,36.479999 -53.76,0 -85.12,-28.159999 -88.32,-78.719999 h 227.84 V 6.8331313 c 0,-90.2400003 -49.28,-164.4800013 -147.84,-164.4800013 z m -1.28,61.440001 c 45.44,0 71.04,30.72 72.96,74.88 h -151.68 c 2.56,-44.8 33.28,-74.88 78.72,-74.88 z" />
      <path
         id="path929"
         style="font-style:normal;font-variant:normal;font-weight:500;font-stretch:normal;font-size:640px;font-family:Radikal;-inkscape-font-specification:'Radikal Medium';fill:#282832;fill-opacity:1"
         d="m 2296.3923,-315.08687 h -76.8 v 486.4 h 76.8 z" />
      <path
         id="path931"
         style="font-style:normal;font-variant:normal;font-weight:500;font-stretch:normal;font-size:640px;font-family:Radikal;-inkscape-font-specification:'Radikal Medium';fill:#282832;fill-opacity:1"
         d="m 2485.1023,-259.40687 h -77.44 v 108.16 h -60.8 v 65.280001 h 60.8 v 143.36 c 0,78.079999 46.72,120.319999 120.32,120.319999 32,0 55.68,-8.32 71.68,-18.56 l -20.48,-62.079999 c -10.24,5.119999 -24.32,10.879999 -45.44,10.879999 -28.8,0 -48.64,-18.559999 -48.64,-50.559999 v -143.36 h 97.28 v -65.280001 h -97.28 z" />
    </g>
  </g>
</svg>
